<?xml version="1.0" encoding="iso-8859-1"?>
<!-- Generator: Adobe Illustrator 19.0.0, SVG Export Plug-In . SVG Version: 6.00 Build 0)  -->
<svg version="1.1" id="Layer_1" xmlns="http://www.w3.org/2000/svg" xmlns:xlink="http://www.w3.org/1999/xlink" x="0px" y="0px"
	 viewBox="0 0 512 512" style="enable-background:new 0 0 512 512;" xml:space="preserve">
<g>
	<g>
		<path d="M504.852,190.1c-4.609-4.609-10.732-7.148-17.242-7.148H67.213v-54.113c0-4.599,3.736-8.34,8.328-8.34
			c4.599,0,8.34,3.741,8.34,8.34v24.191c0,3.779,3.065,6.844,6.844,6.844h29.531c3.779,0,6.844-3.065,6.844-6.844v-24.191
			c0-28.429-23.129-51.559-51.559-51.559c-28.422,0-51.547,23.129-51.547,51.559v25.554h-9.891c-3.779,0-6.844,3.065-6.844,6.844
			v28.559l0.01,0.201C2.787,194.42,0,200.559,0,207.342c0,6.518,2.539,12.645,7.148,17.254c4.507,4.507,10.478,7.015,16.846,7.116
			v28.392c0,38.186,18.219,73.86,48.946,96.315l-10.833,70.417c-0.303,1.973,0.269,3.981,1.57,5.497
			c1.3,1.516,3.197,2.387,5.194,2.387h23.994c2.27,0,4.391-1.125,5.664-3.003l35.742-52.717c2.983,0.225,5.987,0.349,8.981,0.349
			h225.494c2.994,0,6-0.124,8.981-0.349l35.742,52.717c1.273,1.878,3.396,3.003,5.664,3.003h23.993c1.997,0,3.894-0.873,5.194-2.387
			c1.3-1.515,1.874-3.523,1.571-5.497l-10.833-70.408c30.778-22.451,48.945-57.938,48.945-96.325v-28.393
			c13.266-0.214,23.995-11.055,23.995-24.37C512,200.833,509.461,194.709,504.852,190.1z M37.682,128.837
			c0-20.883,16.983-37.871,37.859-37.871c20.883,0,37.871,16.989,37.871,37.871v17.347H97.569v-17.347
			c0-12.146-9.883-22.028-22.028-22.028c-12.14,0-22.015,9.881-22.015,22.028v25.554H37.682V128.837z M20.948,168.08h32.578v14.872
			H20.948V168.08z M89.237,421.033H76.849l8.701-56.555c10.501,5.805,21.869,10.008,33.608,12.424L89.237,421.033z M422.762,421.033
			l-29.927-44.14c11.742-2.42,23.128-6.627,33.613-12.42l8.702,56.561H422.762z M474.316,260.103
			c0.001,36.147-18.195,69.394-48.676,88.937c-13.657,8.759-28.763,14.122-44.913,15.942c-3.943,0.452-7.974,0.681-11.98,0.681
			H143.253c-4.006,0-8.037-0.229-11.997-0.683c-16.767-1.883-33.028-7.88-47.024-17.339c-29.149-19.697-46.552-52.42-46.552-87.537
			v-28.372h436.636V260.103z M487.61,218.043H24.39c-2.862,0-5.548-1.11-7.564-3.127c-2.023-2.023-3.139-4.714-3.139-7.576
			c0-5.902,4.801-10.703,10.703-10.703H487.61c2.854,0,5.539,1.116,7.564,3.138c2.023,2.025,3.139,4.711,3.139,7.564
			C498.312,213.242,493.511,218.043,487.61,218.043z"/>
	</g>
</g>
<g>
</g>
<g>
</g>
<g>
</g>
<g>
</g>
<g>
</g>
<g>
</g>
<g>
</g>
<g>
</g>
<g>
</g>
<g>
</g>
<g>
</g>
<g>
</g>
<g>
</g>
<g>
</g>
<g>
</g>
</svg>
