<?xml version="1.0" encoding="iso-8859-1"?>
<!-- Generator: Adobe Illustrator 19.0.0, SVG Export Plug-In . SVG Version: 6.00 Build 0)  -->
<svg version="1.1" id="Capa_1" xmlns="http://www.w3.org/2000/svg" xmlns:xlink="http://www.w3.org/1999/xlink" x="0px" y="0px"
	 viewBox="0 0 512 512" style="enable-background:new 0 0 512 512;" xml:space="preserve">
<g>
	<g>
		<path d="M295.542,285.379h-72.346c-4.197,0-7.6,3.403-7.6,7.6s3.403,7.6,7.6,7.6h72.346c4.197,0,7.6-3.403,7.6-7.6
			S299.739,285.379,295.542,285.379z"/>
	</g>
</g>
<g>
	<g>
		<path d="M315.806,256.275H179.788c-3.364,0-6.328,2.212-7.286,5.436c-3.016,10.159-5.711,20.633-8.011,31.134
			c-6.507,29.714-10.467,59.016-11.769,87.094c-0.096,2.074,0.661,4.098,2.095,5.601c1.434,1.502,3.42,2.352,5.497,2.352h155.492
			c4.197,0,7.6-3.403,7.6-7.6V263.875C323.406,259.677,320.003,256.275,315.806,256.275z M308.206,372.691h-139.86
			c0.296-4.601,0.687-9.244,1.127-13.905h126.069c4.197,0,7.6-3.403,7.6-7.6c0-4.197-3.403-7.6-7.6-7.6H171.132
			c0.581-4.611,1.245-9.25,1.961-13.904h122.45c4.197,0,7.6-3.403,7.6-7.6c0-4.197-3.403-7.6-7.6-7.6H175.645
			c0.848-4.62,1.775-9.257,2.753-13.905h19.463c4.197,0,7.6-3.403,7.6-7.6c0-4.197-3.403-7.6-7.6-7.6H181.84
			c1.149-4.67,2.365-9.316,3.659-13.905h122.707V372.691z"/>
	</g>
</g>
<g>
	<g>
		<path d="M315.806,401.795H159.923c-2.043,0-4,0.823-5.429,2.282c-1.43,1.459-2.211,3.433-2.17,5.475
			c0.425,20.522,2.344,40.501,5.704,59.385c0.645,3.627,3.799,6.268,7.482,6.268h150.296c4.197,0,7.6-3.403,7.6-7.6v-58.211
			C323.406,405.198,320.003,401.795,315.806,401.795z M308.206,460.007H171.939c-0.724-4.573-1.353-9.215-1.904-13.907h125.507
			c4.197,0,7.6-3.403,7.6-7.6c0-4.197-3.403-7.6-7.6-7.6H168.57c-0.349-4.596-0.626-9.23-0.814-13.905h140.45V460.007z"/>
	</g>
</g>
<g>
	<g>
		<path d="M323.406,101.628c0-8.801-4.96-16.568-12.943-20.269c-7.977-3.698-17.1-2.468-23.811,3.212
			c-15.477,13.1-38.685,35.378-61.348,67.115c-17.168,24.045-31.554,51.086-42.757,80.369c-0.894,2.336-0.581,4.962,0.837,7.023
			c1.418,2.061,3.759,3.292,6.261,3.292h126.162c4.197,0,7.6-3.403,7.6-7.6V101.628H323.406z M308.207,227.171h-0.001H200.865
			c1.965-4.71,4.043-9.332,6.181-13.905h88.496c4.197,0,7.6-3.403,7.6-7.6s-3.403-7.6-7.6-7.6h-80.945
			c2.489-4.715,5.05-9.364,7.727-13.905h73.218c4.197,0,7.6-3.403,7.6-7.6c0-4.197-3.403-7.6-7.6-7.6h-63.678
			c1.9-2.854,3.831-5.675,5.809-8.444c1.473-2.064,2.95-4.078,4.425-6.059h53.44c4.197,0,7.6-3.403,7.6-7.6
			c0-4.197-3.403-7.6-7.6-7.6h-41.487c16.086-19.381,31.33-33.702,42.421-43.088c3.218-2.726,6.629-1.473,7.597-1.024
			c0.971,0.45,4.137,2.247,4.137,6.481V227.171z"/>
	</g>
</g>
<g>
	<g>
		<path d="M358.673,157.584c-0.186-4.194-3.723-7.431-7.93-7.255c-4.193,0.186-7.441,3.737-7.254,7.93l9.234,207.595
			c0.181,4.078,3.545,7.262,7.587,7.262c0.114,0,0.229-0.002,0.344-0.007c4.193-0.186,7.441-3.737,7.254-7.93L358.673,157.584z"/>
	</g>
</g>
<g>
	<g>
		<path d="M410.663,496.8h-36.901l-4.677-105.148c-0.186-4.193-3.71-7.442-7.93-7.254c-4.193,0.186-7.441,3.737-7.254,7.93
			l4.647,104.472H134.559l-0.892-3.396c-10.979-41.903-19.529-111.258,2.096-203.709c12.997-55.573,35.727-104.913,67.559-146.648
			c19.18-25.148,41.535-47.317,66.443-65.892c20.068-14.965,52.697-32.723,69.35-41.472l2.177,51.59
			c0.176,4.194,3.696,7.455,7.914,7.273c4.193-0.176,7.45-3.72,7.273-7.914l-2.679-63.485c-0.108-2.576-1.517-4.922-3.738-6.229
			c-2.223-1.309-4.957-1.399-7.262-0.243c-0.652,0.327-5.748,2.891-13.332,6.897V7.6c0-4.197-3.403-7.6-7.6-7.6
			c-4.197,0-7.6,3.403-7.6,7.6v24.174c-17.135,9.447-38.456,21.914-53.587,33.198c-26.041,19.419-49.405,42.587-69.443,68.859
			c-33.142,43.451-56.785,94.727-70.274,152.403c-22.257,95.153-13.474,166.952-2.115,210.566h-17.51c-4.197,0-7.6,3.403-7.6,7.6
			c0,4.197,3.403,7.6,7.6,7.6h27.36h237.796h44.171c4.197,0,7.6-3.403,7.6-7.6C418.263,500.203,414.86,496.8,410.663,496.8z"/>
	</g>
</g>
<g>
	<g>
		<path d="M393.895,101.605H348.39c-11.2,0.001-20.313,9.114-20.313,20.315s9.113,20.314,20.314,20.314h30.977l-13.455,19.384
			c-2.393,3.448-1.538,8.184,1.909,10.577c1.321,0.917,2.831,1.357,4.327,1.357c2.407,0,4.774-1.14,6.25-3.267l19.796-28.52
			c9.14-1.98,16.012-10.121,16.012-19.846C414.209,110.717,405.096,101.605,393.895,101.605z M393.896,127.034h-45.504
			c-2.82,0-5.114-2.294-5.114-5.114s2.294-5.114,5.114-5.114h45.504c2.82,0,5.114,2.294,5.114,5.114
			S396.716,127.034,393.896,127.034z"/>
	</g>
</g>
<g>
</g>
<g>
</g>
<g>
</g>
<g>
</g>
<g>
</g>
<g>
</g>
<g>
</g>
<g>
</g>
<g>
</g>
<g>
</g>
<g>
</g>
<g>
</g>
<g>
</g>
<g>
</g>
<g>
</g>
</svg>
