<?xml version="1.0" encoding="UTF-8"?>
<svg xmlns="http://www.w3.org/2000/svg" xmlns:xlink="http://www.w3.org/1999/xlink" version="1.1" id="Capa_1" x="0px" y="0px" viewBox="0 0 512 512" style="enable-background:new 0 0 512 512;" xml:space="preserve" width="512" height="512">
<g>
	<g>
		<path style="fill:none;stroke:#000000;stroke-width:15;stroke-linecap:round;stroke-linejoin:round;stroke-miterlimit:10;" d="&#10;&#9;&#9;&#9;M256,7.5v44.3 M286,274.693v-91.988c0-2.508-1.253-4.849-3.34-6.24l-7.5-5c-2.519-1.68-5.801-1.68-8.32,0L256,178.691V472.5&#10;&#9;&#9;&#9; M254.932,224.337l-25.452-8.484c-2.196-0.732-4.606-0.409-6.532,0.875l-8.608,5.739c-2.086,1.391-3.34,3.733-3.34,6.24v85.986&#10;&#9;&#9;&#9; M254.972,414.642l-58.041-2.902c-0.618-0.031-1.238,0.015-1.845,0.136l-8.057,1.611c-3.506,0.701-6.029,3.779-6.029,7.354&#10;&#9;&#9;&#9;l-0.001,51.658 M254.956,324.461l-40.832-9.074c-1.996-0.444-4.086-0.053-5.787,1.081l-8.997,5.998&#10;&#9;&#9;&#9;c-2.086,1.391-3.34,3.733-3.34,6.24v80.986 M226,318.323V472.5 M286,372.769V472.5 M316,472.5v-92.729&#10;&#9;&#9;&#9;c0-3.067-1.867-5.825-4.715-6.964l-8.459-3.384c-1.197-0.479-2.498-0.641-3.777-0.471l-42.081,5.611 M301,330.474v35.482&#10;&#9;&#9;&#9; M301,300.474v-11.767c0-2.508-1.253-4.849-3.34-6.24l-8.608-5.739c-1.926-1.284-4.336-1.607-6.532-0.875l-25.444,8.481&#10;&#9;&#9;&#9; M256,472.5 M271,137.487v31.204 M271,107.487V70.906c0-1.989-0.79-3.897-2.197-5.303L256,52.8l-12.803,12.803&#10;&#9;&#9;&#9;C241.79,67.01,241,68.917,241,70.906V122.8l-12.803,12.803c-1.407,1.407-2.197,3.314-2.197,5.303v73.787 M135.658,504.5h240.684&#10;&#9;&#9;&#9; M357.974,502.5V482c0-4.142-3.358-7.5-7.5-7.5H161.526c-4.142,0-7.5,3.358-7.5,7.5v20.5 M241,475.667v27.667 M271,475.667v27.667&#10;&#9;&#9;&#9;"/>
	</g>
</g>















</svg>
