<?xml version="1.0" encoding="UTF-8" standalone="no"?>
<!-- Created with Inkscape (http://www.inkscape.org/) -->

<svg
   version="1.1"
   id="svg3843"
   xml:space="preserve"
   width="682.66669"
   height="682.66669"
   viewBox="0 0 682.66669 682.66669"
   xmlns="http://www.w3.org/2000/svg"
   xmlns:svg="http://www.w3.org/2000/svg"><defs
     id="defs3847"><clipPath
       clipPathUnits="userSpaceOnUse"
       id="clipPath3857"><path
         d="M 0,512 H 512 V 0 H 0 Z"
         id="path3855" /></clipPath><clipPath
       clipPathUnits="userSpaceOnUse"
       id="clipPath3871"><path
         d="M 0,512 H 512 V 0 H 0 Z"
         id="path3869" /></clipPath><clipPath
       clipPathUnits="userSpaceOnUse"
       id="clipPath3903"><path
         d="M 0,512 H 512 V 0 H 0 Z"
         id="path3901" /></clipPath></defs><g
     id="g3849"
     transform="matrix(1.3333333,0,0,-1.3333333,0,682.66667)"><g
       id="g3851"><g
         id="g3853"
         clip-path="url(#clipPath3857)"><path
           d="m 7.5,53.451 h 497 V 82.59 H 7.5 Z"
           style="fill:none;stroke:#000000;stroke-width:14.995;stroke-linecap:round;stroke-linejoin:round;stroke-miterlimit:10;stroke-dasharray:none;stroke-opacity:1"
           id="path3859" /></g></g><g
       id="g3861"
       transform="translate(48.916,140.8145)"><path
         d="M 0,0 V 177.223 M 414.17,118.971 V -58.225 H 0 v 24.266 m 414.17,211.182 v -24.266"
         style="fill:none;stroke:#000000;stroke-width:14.995;stroke-linecap:round;stroke-linejoin:round;stroke-miterlimit:10;stroke-dasharray:none;stroke-opacity:1"
         id="path3863" /></g><g
       id="g3865"><g
         id="g3867"
         clip-path="url(#clipPath3871)"><g
           id="g3873"
           transform="translate(100.0234,458.5488)"><path
             d="m 0,0 -9.693,-99.098 h -82.83 L -73.105,0 Z"
             style="fill:none;stroke:#000000;stroke-width:14.995;stroke-linecap:round;stroke-linejoin:round;stroke-miterlimit:10;stroke-dasharray:none;stroke-opacity:1"
             id="path3875" /></g><g
           id="g3877"
           transform="translate(504.5,359.4512)"><path
             d="M 0,0 -19.418,99.098 H -92.553"
             style="fill:none;stroke:#000000;stroke-width:14.995;stroke-linecap:round;stroke-linejoin:round;stroke-miterlimit:10;stroke-dasharray:none;stroke-opacity:1"
             id="path3879" /></g></g></g><g
       id="g3881"
       transform="translate(100.0234,458.5488)"><path
         d="M 0,0 H 77.982"
         style="fill:none;stroke:#000000;stroke-width:14.995;stroke-linecap:round;stroke-linejoin:round;stroke-miterlimit:10;stroke-dasharray:none;stroke-opacity:1"
         id="path3883" /></g><g
       id="g3885"
       transform="translate(333.9668,458.5488)"><path
         d="M 0,0 4.848,-99.098 H 87.705 L 77.98,0 Z"
         style="fill:none;stroke:#000000;stroke-width:14.995;stroke-linecap:round;stroke-linejoin:round;stroke-miterlimit:10;stroke-dasharray:none;stroke-opacity:1"
         id="path3887" /></g><g
       id="g3889"
       transform="translate(255.9863,458.5488)"><path
         d="M 0,0 V -99.098 H -82.828 L -77.98,0 Z"
         style="fill:none;stroke:#000000;stroke-width:14.995;stroke-linecap:round;stroke-linejoin:round;stroke-miterlimit:10;stroke-dasharray:none;stroke-opacity:1"
         id="path3891" /></g><g
       id="g3893"
       transform="translate(333.9668,458.5488)"><path
         d="M 0,0 H -77.98"
         style="fill:none;stroke:#000000;stroke-width:14.995;stroke-linecap:round;stroke-linejoin:round;stroke-miterlimit:10;stroke-dasharray:none;stroke-opacity:1"
         id="path3895" /></g><g
       id="g3897"><g
         id="g3899"
         clip-path="url(#clipPath3903)"><g
           id="g3905"
           transform="translate(90.3301,359.4512)"><path
             d="M 0,0 C 0,-22.764 -18.652,-41.414 -41.414,-41.414 -64.205,-41.414 -82.83,-22.791 -82.83,0 Z"
             style="fill:none;stroke:#000000;stroke-width:14.995;stroke-linecap:round;stroke-linejoin:round;stroke-miterlimit:10;stroke-dasharray:none;stroke-opacity:1"
             id="path3907" /></g><g
           id="g3909"
           transform="translate(421.6719,359.4512)"><path
             d="m 0,0 c 0,-22.764 18.623,-41.414 41.414,-41.414 22.762,0 41.414,18.623 41.414,41.414 z"
             style="fill:none;stroke:#000000;stroke-width:14.995;stroke-linecap:round;stroke-linejoin:round;stroke-miterlimit:10;stroke-dasharray:none;stroke-opacity:1"
             id="path3911" /></g><g
           id="g3913"
           transform="translate(173.1582,359.4512)"><path
             d="m 0,0 c 0,-22.764 -18.625,-41.414 -41.414,-41.414 -22.791,0 -41.414,18.623 -41.414,41.414 z"
             style="fill:none;stroke:#000000;stroke-width:14.995;stroke-linecap:round;stroke-linejoin:round;stroke-miterlimit:10;stroke-dasharray:none;stroke-opacity:1"
             id="path3915" /></g><g
           id="g3917"
           transform="translate(338.8145,359.4512)"><path
             d="m 0,0 c 0,-22.764 18.652,-41.414 41.414,-41.414 22.791,0 41.443,18.623 41.443,41.414 z"
             style="fill:none;stroke:#000000;stroke-width:14.995;stroke-linecap:round;stroke-linejoin:round;stroke-miterlimit:10;stroke-dasharray:none;stroke-opacity:1"
             id="path3919" /></g><g
           id="g3921"
           transform="translate(255.9863,359.4512)"><path
             d="m 0,0 c 0,-22.764 -18.623,-41.414 -41.414,-41.414 -22.762,0 -41.414,18.623 -41.414,41.414 z"
             style="fill:none;stroke:#000000;stroke-width:14.995;stroke-linecap:round;stroke-linejoin:round;stroke-miterlimit:10;stroke-dasharray:none;stroke-opacity:1"
             id="path3923" /></g><g
           id="g3925"
           transform="translate(255.9863,359.4512)"><path
             d="m 0,0 c 0,-22.764 18.652,-41.414 41.414,-41.414 22.791,0 41.414,18.623 41.414,41.414 z"
             style="fill:none;stroke:#000000;stroke-width:14.995;stroke-linecap:round;stroke-linejoin:round;stroke-miterlimit:10;stroke-dasharray:none;stroke-opacity:1"
             id="path3927" /></g><path
           d="M 102.348,82.59 H 409.623 V 282.121 H 102.348 Z"
           style="fill:none;stroke:#000000;stroke-width:14.995;stroke-linecap:round;stroke-linejoin:round;stroke-miterlimit:10;stroke-dasharray:none;stroke-opacity:1"
           id="path3929" /><g
           id="g3931"
           transform="translate(280.4492,244.8457)"><path
             d="M 0,0 H -178.102 V 37.275 H 129.174 V 0 H 33.959"
             style="fill:none;stroke:#000000;stroke-width:14.995;stroke-linecap:round;stroke-linejoin:round;stroke-miterlimit:10;stroke-dasharray:none;stroke-opacity:1"
             id="path3933" /></g><path
           d="m 102.348,82.59 h 84.813 v 162.256 h -84.813 z"
           style="fill:none;stroke:#000000;stroke-width:14.995;stroke-linecap:round;stroke-linejoin:round;stroke-miterlimit:10;stroke-dasharray:none;stroke-opacity:1"
           id="path3935" /><g
           id="g3937"
           transform="translate(229.9648,119.4688)"><path
             d="M 0,0 V -36.879 M 29.082,0 V -36.879 M 134.9,0 V -36.879 M 105.846,0 V -36.879 M 101.422,0 H 134.9 l 8.475,40.564 M 28.629,27.922 h 77.67 M 67.463,-36.879 V 27.922 M 33.477,0 H 0 l -8.447,40.564"
             style="fill:none;stroke:#000000;stroke-width:14.995;stroke-linecap:round;stroke-linejoin:round;stroke-miterlimit:10;stroke-dasharray:none;stroke-opacity:1"
             id="path3939" /></g><g
           id="g3941"
           transform="translate(158.0215,155.8086)"><path
             d="M 0,0 V 15.789"
             style="fill:none;stroke:#000000;stroke-width:14.995;stroke-linecap:round;stroke-linejoin:round;stroke-miterlimit:10;stroke-dasharray:none;stroke-opacity:1"
             id="path3943" /></g></g></g></g></svg>
