<?xml version="1.0" encoding="iso-8859-1"?>
<!-- Generator: Adobe Illustrator 18.0.0, SVG Export Plug-In . SVG Version: 6.00 Build 0)  -->
<!DOCTYPE svg PUBLIC "-//W3C//DTD SVG 1.1//EN" "http://www.w3.org/Graphics/SVG/1.1/DTD/svg11.dtd">
<svg version="1.1" id="Capa_1" xmlns="http://www.w3.org/2000/svg" xmlns:xlink="http://www.w3.org/1999/xlink" x="0px" y="0px"
	 viewBox="0 0 433 433" style="enable-background:new 0 0 433 433;" xml:space="preserve">
<g>
	<path d="M427,107c3.314,0,6-2.687,6-6V61c0-3.313-2.686-6-6-6h-31.5V37c0-3.313-2.687-6-6-6h-84c-3.313,0-6,2.687-6,6v18h-166V37
		c0-3.313-2.687-6-6-6h-84c-3.313,0-6,2.687-6,6v18H6c-3.314,0-6,2.687-6,6v187c0,3.313,2.686,6,6,6h104v96H6c-3.314,0-6,2.687-6,6
		v40c0,3.313,2.686,6,6,6h231h119h71c3.314,0,6-2.687,6-6V208c0-3.313-2.686-6-6-6h-13v-95H427z M311.5,43h72v12h-72V43z M49.5,43
		h72v12h-72V43z M122,254h259v96h-19v-73c0-3.313-2.687-6-6-6H237c-3.313,0-6,2.687-6,6v73H122V254z M350,295H243v-12h107V295z
		 M243,307h107v12.667H243V307z M243,331.667h107v12.667H243V331.667z M243,356.334h107V369H243V356.334z M12,362h219v28H12V362z
		 M243,390v-9h107v9H243z M421,390h-59v-28h25c3.314,0,6-2.687,6-6V248c0-3.313-2.686-6-6-6H12V67h409v28H46c-3.314,0-6,2.687-6,6
		v107c0,3.313,2.686,6,6,6h375V390z M268,202v-95h61v95H268z M52,202v-95h58v95H52z M122,107h61v95h-61V107z M195,107h61v95h-61V107
		z M402,202h-61v-95h61V202z"/>
	<path d="M218,284h-84c-3.313,0-6,2.687-6,6v31c0,3.313,2.687,6,6,6h84c3.313,0,6-2.687,6-6v-31C224,286.687,221.313,284,218,284z
		 M212,315h-72v-19h72V315z"/>
</g>
<g>
</g>
<g>
</g>
<g>
</g>
<g>
</g>
<g>
</g>
<g>
</g>
<g>
</g>
<g>
</g>
<g>
</g>
<g>
</g>
<g>
</g>
<g>
</g>
<g>
</g>
<g>
</g>
<g>
</g>
</svg>
