<?xml version="1.0" encoding="UTF-8" standalone="no"?>
<!-- Created with Inkscape (http://www.inkscape.org/) -->

<svg
   version="1.1"
   id="svg3270"
   xml:space="preserve"
   width="682.66669"
   height="682.66669"
   viewBox="0 0 682.66669 682.66669"
   xmlns="http://www.w3.org/2000/svg"
   xmlns:svg="http://www.w3.org/2000/svg"><defs
     id="defs3274"><clipPath
       clipPathUnits="userSpaceOnUse"
       id="clipPath3288"><path
         d="M 0,512 H 512 V 0 H 0 Z"
         id="path3286" /></clipPath></defs><g
     id="g3276"
     transform="matrix(1.3333333,0,0,-1.3333333,0,682.66667)"><g
       id="g3278"
       transform="translate(256,340.9502)"><path
         d="M 0,0 V -297.58"
         style="fill:none;stroke:#000000;stroke-width:15;stroke-linecap:round;stroke-linejoin:round;stroke-miterlimit:10;stroke-dasharray:none;stroke-opacity:1"
         id="path3280" /></g><g
       id="g3282"><g
         id="g3284"
         clip-path="url(#clipPath3288)"><g
           id="g3290"
           transform="translate(450.061,428.4355)"><path
             d="m 0,0 c 20.102,-20.062 38.61,-45.254 54.032,-76.825 1.297,-2.655 -0.662,-5.747 -3.639,-5.747 h -488.908 c -2.977,0 -4.936,3.092 -3.639,5.746 65.15,133.399 185.439,152.89 248.093,152.89 41.513,0 108.321,-8.556 167.634,-53.13"
             style="fill:none;stroke:#000000;stroke-width:15;stroke-linecap:round;stroke-linejoin:round;stroke-miterlimit:10;stroke-dasharray:none;stroke-opacity:1"
             id="path3292" /></g><g
           id="g3294"
           transform="translate(413.9082,345.8633)"><path
             d="m 0,0 h -315.816 c 40.583,138.589 117.905,158.637 157.908,158.637 C -117.905,158.637 -40.59,138.589 0,0 Z"
             style="fill:none;stroke:#000000;stroke-width:15;stroke-linecap:round;stroke-linejoin:round;stroke-miterlimit:10;stroke-dasharray:none;stroke-opacity:1"
             id="path3296" /></g><g
           id="g3298"
           transform="translate(316.9531,345.8633)"><path
             d="m 0,0 h -121.906 c 15.665,138.589 45.512,158.637 60.953,158.637 C -45.512,158.637 -15.667,138.589 0,0 Z"
             style="fill:none;stroke:#000000;stroke-width:15;stroke-linecap:round;stroke-linejoin:round;stroke-miterlimit:10;stroke-dasharray:none;stroke-opacity:1"
             id="path3300" /></g><g
           id="g3302"
           transform="translate(500.1152,7.5)"><path
             d="m 0,0 h -488.23 c -2.422,0 -4.385,1.963 -4.385,4.385 v 12.038 c 0,9.708 7.869,17.577 17.577,17.577 H -13.192 C -3.485,34 4.385,26.131 4.385,16.423 V 4.385 C 4.385,1.963 2.422,0 0,0 Z"
             style="fill:none;stroke:#000000;stroke-width:15;stroke-linecap:round;stroke-linejoin:round;stroke-miterlimit:10;stroke-dasharray:none;stroke-opacity:1"
             id="path3304" /></g><g
           id="g3306"
           transform="translate(140.335,182)"><path
             d="m 0,0 h 53.978 c 4.418,0 8,-3.582 8,-8 v -52 h -118 v 52 c 0,4.418 3.581,8 8,8 h 12.58"
             style="fill:none;stroke:#000000;stroke-width:15;stroke-linecap:round;stroke-linejoin:round;stroke-miterlimit:10;stroke-dasharray:none;stroke-opacity:1"
             id="path3308" /></g><g
           id="g3310"
           transform="translate(210.3125,92)"><path
             d="m 0,0 h -134 c -4.418,0 -8,3.582 -8,8 v 14 c 0,4.418 3.582,8 8,8 H 0 c 4.418,0 8,-3.582 8,-8 V 8 C 8,3.582 4.418,0 0,0 Z"
             style="fill:none;stroke:#000000;stroke-width:15;stroke-linecap:round;stroke-linejoin:round;stroke-miterlimit:10;stroke-dasharray:none;stroke-opacity:1"
             id="path3312" /></g><g
           id="g3314"
           transform="translate(71.5688,41.5)"><path
             d="M 0,0 12.744,50.5"
             style="fill:none;stroke:#000000;stroke-width:15;stroke-linecap:round;stroke-linejoin:round;stroke-miterlimit:10;stroke-dasharray:none;stroke-opacity:1"
             id="path3316" /></g><g
           id="g3318"
           transform="translate(215.0562,41.5)"><path
             d="M 0,0 -12.744,50.5"
             style="fill:none;stroke:#000000;stroke-width:15;stroke-linecap:round;stroke-linejoin:round;stroke-miterlimit:10;stroke-dasharray:none;stroke-opacity:1"
             id="path3320" /></g><g
           id="g3322"
           transform="translate(427.6875,122)"><path
             d="m 0,0 h -118 v 52 c 0,4.418 3.582,8 8,8 H -8 c 4.418,0 8,-3.582 8,-8 z"
             style="fill:none;stroke:#000000;stroke-width:15;stroke-linecap:round;stroke-linejoin:round;stroke-miterlimit:10;stroke-dasharray:none;stroke-opacity:1"
             id="path3324" /></g><g
           id="g3326"
           transform="translate(435.6875,92)"><path
             d="m 0,0 h -134 c -4.418,0 -8,3.582 -8,8 v 14 c 0,4.418 3.582,8 8,8 H 0 c 4.418,0 8,-3.582 8,-8 V 8 C 8,3.582 4.418,0 0,0 Z"
             style="fill:none;stroke:#000000;stroke-width:15;stroke-linecap:round;stroke-linejoin:round;stroke-miterlimit:10;stroke-dasharray:none;stroke-opacity:1"
             id="path3328" /></g><g
           id="g3330"
           transform="translate(296.9438,41.5)"><path
             d="M 0,0 12.744,50.5"
             style="fill:none;stroke:#000000;stroke-width:15;stroke-linecap:round;stroke-linejoin:round;stroke-miterlimit:10;stroke-dasharray:none;stroke-opacity:1"
             id="path3332" /></g><g
           id="g3334"
           transform="translate(440.4312,41.5)"><path
             d="M 0,0 -12.744,50.5"
             style="fill:none;stroke:#000000;stroke-width:15;stroke-linecap:round;stroke-linejoin:round;stroke-miterlimit:10;stroke-dasharray:none;stroke-opacity:1"
             id="path3336" /></g></g></g></g></svg>
