<?xml version="1.0" encoding="UTF-8" standalone="no"?>
<!-- Created with Inkscape (http://www.inkscape.org/) -->

<svg
   version="1.1"
   id="svg9"
   xml:space="preserve"
   width="682.66669"
   height="682.66669"
   viewBox="0 0 682.66669 682.66669"
   xmlns="http://www.w3.org/2000/svg"
   xmlns:svg="http://www.w3.org/2000/svg"><defs
     id="defs13"><clipPath
       clipPathUnits="userSpaceOnUse"
       id="clipPath23"><path
         d="M 0,512 H 512 V 0 H 0 Z"
         id="path21" /></clipPath><clipPath
       clipPathUnits="userSpaceOnUse"
       id="clipPath51"><path
         d="M 0,512 H 512 V 0 H 0 Z"
         id="path49" /></clipPath></defs><g
     id="g15"
     transform="matrix(1.3333333,0,0,-1.3333333,0,682.66667)"><g
       id="g17"><g
         id="g19"
         clip-path="url(#clipPath23)"><g
           id="g25"
           transform="translate(104.2324,7.4849)"><path
             d="M 0,0 V 62.771"
             style="fill:none;stroke:#000000;stroke-width:15;stroke-linecap:round;stroke-linejoin:round;stroke-miterlimit:10;stroke-dasharray:none;stroke-opacity:1"
             id="path27" /></g><g
           id="g29"
           transform="translate(76.0835,148)"><path
             d="M 0,0 V -140.515"
             style="fill:none;stroke:#000000;stroke-width:15;stroke-linecap:round;stroke-linejoin:round;stroke-miterlimit:10;stroke-dasharray:none;stroke-opacity:1"
             id="path31" /></g></g></g><g
       id="g33"
       transform="translate(76.0835,435.0547)"><path
         d="M 0,0 V -30.84"
         style="fill:none;stroke:#000000;stroke-width:15;stroke-linecap:round;stroke-linejoin:round;stroke-miterlimit:10;stroke-dasharray:none;stroke-opacity:1"
         id="path35" /></g><g
       id="g37"
       transform="translate(104.2324,414.1787)"><path
         d="M 0,0 V 20.876"
         style="fill:none;stroke:#000000;stroke-width:15;stroke-linecap:round;stroke-linejoin:round;stroke-miterlimit:10;stroke-dasharray:none;stroke-opacity:1"
         id="path39" /></g><g
       id="g41"
       transform="translate(104.2324,103.5801)"><path
         d="M 0,0 V 51.849"
         style="fill:none;stroke:#000000;stroke-width:15;stroke-linecap:round;stroke-linejoin:round;stroke-miterlimit:10;stroke-dasharray:none;stroke-opacity:1"
         id="path43" /></g><g
       id="g45"><g
         id="g47"
         clip-path="url(#clipPath51)"><g
           id="g53"
           transform="translate(72.5303,460.73)"><path
             d="m 0,0 c -4.82,4.62 -7.82,11.13 -7.82,18.34 0,14.05 11.39,25.45 25.45,25.45 14.05,0 25.44,-11.4 25.44,-25.45 0,-7.21 -3,-13.72 -7.82,-18.34"
             style="fill:none;stroke:#000000;stroke-width:15;stroke-linecap:round;stroke-linejoin:round;stroke-miterlimit:10;stroke-dasharray:none;stroke-opacity:1"
             id="path55" /></g><g
           id="g57"
           transform="translate(108.3677,438.6035)"><path
             d="m 0,0 h -36.42 c -5.832,0 -10.561,4.729 -10.561,10.561 0,5.833 4.729,10.562 10.561,10.562 H 0 c 5.833,0 10.561,-4.729 10.561,-10.562 C 10.561,4.729 5.833,0 0,0 Z"
             style="fill:none;stroke:#000000;stroke-width:15;stroke-linecap:round;stroke-linejoin:round;stroke-miterlimit:10;stroke-dasharray:none;stroke-opacity:1"
             id="path59" /></g><g
           id="g61"
           transform="translate(165.0786,241.1865)"><path
             d="m 0,0 c 35.12,-0.42 67.374,-7.758 93.051,-19.807 26.452,-12.412 59.886,-19.825 96.242,-19.825 34.747,0 66.824,6.772 92.689,18.207"
             style="fill:none;stroke:#000000;stroke-width:15;stroke-linecap:round;stroke-linejoin:round;stroke-miterlimit:10;stroke-dasharray:none;stroke-opacity:1"
             id="path63" /></g><g
           id="g65"
           transform="translate(447.0591,320.4873)"><path
             d="m 0,0 c -25.865,-11.435 -57.941,-18.207 -92.688,-18.207 -36.356,0 -69.789,7.414 -96.242,19.826 -25.676,12.048 -57.93,19.387 -93.051,19.807"
             style="fill:none;stroke:#000000;stroke-width:15;stroke-linecap:round;stroke-linejoin:round;stroke-miterlimit:10;stroke-dasharray:none;stroke-opacity:1"
             id="path67" /></g><g
           id="g69"
           transform="translate(161.0269,168.4126)"><path
             d="M 0,0 V 246.294"
             style="fill:none;stroke:#000000;stroke-width:15;stroke-linecap:round;stroke-linejoin:round;stroke-miterlimit:10;stroke-dasharray:none;stroke-opacity:1"
             id="path71" /></g><g
           id="g73"
           transform="translate(65.6455,276.3496)"><path
             d="m 0,0 v -116.042 c 0,-6.831 6.819,-11.554 13.212,-9.149 24.011,9.032 52.489,14.263 83.03,14.263 36.357,0 69.789,-7.413 96.242,-19.825 26.453,-12.413 59.886,-19.826 96.242,-19.826 30.77,0 59.446,5.31 83.569,14.467 7.617,2.891 12.673,10.164 12.673,18.312 v 224.63 c 0,6.83 -6.82,11.553 -13.212,9.149 -19.654,-7.394 -42.304,-12.235 -66.627,-13.751"
             style="fill:none;stroke:#000000;stroke-width:15;stroke-linecap:round;stroke-linejoin:round;stroke-miterlimit:10;stroke-dasharray:none;stroke-opacity:1"
             id="path75" /></g><g
           id="g77"
           transform="translate(337.4512,378.6265)"><path
             d="m 0,0 c -29.775,1.916 -57.032,8.805 -79.322,19.264 -26.452,12.412 -59.885,19.825 -96.241,19.825 -30.77,0 -59.447,-5.31 -83.569,-14.466 -7.618,-2.892 -12.674,-10.165 -12.674,-18.312 v -75.264"
             style="fill:none;stroke:#000000;stroke-width:15;stroke-linecap:round;stroke-linejoin:round;stroke-miterlimit:10;stroke-dasharray:none;stroke-opacity:1"
             id="path79" /></g></g></g></g></svg>
