<?xml version="1.0" encoding="UTF-8" standalone="no"?>
<!-- Created with Inkscape (http://www.inkscape.org/) -->

<svg
   version="1.1"
   id="svg525"
   xml:space="preserve"
   width="682.66669"
   height="682.66669"
   viewBox="0 0 682.66669 682.66669"
   xmlns="http://www.w3.org/2000/svg"
   xmlns:svg="http://www.w3.org/2000/svg"><defs
     id="defs529"><clipPath
       clipPathUnits="userSpaceOnUse"
       id="clipPath539"><path
         d="M 0,512 H 512 V 0 H 0 Z"
         id="path537" /></clipPath></defs><g
     id="g531"
     transform="matrix(1.3333333,0,0,-1.3333333,0,682.66667)"><g
       id="g533"><g
         id="g535"
         clip-path="url(#clipPath539)"><g
           id="g541"
           transform="translate(152.4766,321.1387)"><path
             d="m 0,0 c -22.865,-9.247 -42.378,-23.913 -55.928,-42.292 -5.826,-7.903 -4.142,-19.033 3.761,-24.859 3.175,-2.342 6.871,-3.471 10.534,-3.471 5.455,0.001 10.84,2.503 14.324,7.23 11.807,16.015 30.34,28.228 52.185,34.391 19.2,5.416 39.887,6.078 60.514,2.06 V -46.583 C 60.071,-49.18 36.158,-57.222 15.396,-70.232 -10.01,-86.154 -29.153,-109.013 -38.507,-134.6 c -3.37,-9.222 1.373,-19.43 10.596,-22.8 9.22,-3.371 19.428,1.372 22.801,10.593 12.379,33.868 48.251,58.774 90.5,64.393 v -29.724 c -14.686,-2.46 -28.539,-7.902 -40.758,-16.123 -16.712,-11.245 -29.354,-27.304 -35.67,-45.288 -3.247,-9.247 1.317,-19.883 10.539,-23.203 9.374,-3.375 19.662,1.599 22.86,10.994 6.17,18.124 22.755,31.992 43.029,37.263 v -26.663 c 0,-5.384 -1.982,-10.579 -5.565,-14.597 l -0.086,-0.097 c -9.219,-5.503 -22.23,-16.392 -30.45,-36.682 -2.297,-5.67 1.876,-11.87 7.993,-11.87 h 14.443 v -42.785 c 0,-17.32 13.58,-31.961 30.893,-32.435 17.963,-0.493 32.679,13.922 32.679,31.774 v 43.446 h 14.465 c 6.118,0 10.291,6.201 7.993,11.871 -8.234,20.323 -21.273,31.213 -30.494,36.708 l -0.051,0.056 c -3.592,4.026 -5.577,9.233 -5.577,14.628 v 26.646 c 20.273,-5.271 36.857,-19.139 43.027,-37.263 2.519,-7.396 9.426,-12.054 16.828,-12.054 2.158,0 4.36,0.397 6.506,1.237 9.046,3.539 13.278,13.889 10.056,23.054 -6.32,17.972 -18.956,34.021 -35.66,45.26 -12.218,8.221 -26.073,13.663 -40.757,16.123 v 29.724 c 13.893,-1.848 27.09,-5.794 38.996,-11.446"
             style="fill:none;stroke:#000000;stroke-width:15;stroke-linecap:round;stroke-linejoin:round;stroke-miterlimit:10;stroke-dasharray:none;stroke-opacity:1"
             id="path543" /></g><g
           id="g545"
           transform="translate(340.8975,208.8062)"><path
             d="m 0,0 c 10.722,-9.781 18.956,-21.462 23.712,-34.474 2.635,-7.208 9.446,-11.68 16.699,-11.68 2.026,0 4.088,0.35 6.102,1.086 9.222,3.371 13.965,13.579 10.594,22.801 C 47.754,3.319 28.611,26.179 3.204,42.1 -17.558,55.11 -41.471,63.152 -66.788,65.75 v 19.681 c 20.56,3.975 41.176,3.299 60.316,-2.1 21.846,-6.163 40.377,-18.376 52.184,-34.39 3.485,-4.728 8.868,-7.23 14.324,-7.23 3.663,0 7.36,1.129 10.534,3.47 7.904,5.826 9.587,16.956 3.761,24.859 -16.471,22.341 -41.738,39.214 -71.148,47.511 -22.38,6.313 -46.2,7.612 -69.971,3.96 v 17.367 c 18.551,11.468 38.937,19.102 59.515,22.231 9.512,1.446 16.595,9.9 15.605,19.471 -1.049,10.142 -10.311,17.259 -20.294,15.779 -18.722,-2.776 -37.266,-8.566 -54.826,-17.012 v 15.756 c 0,9.826 -7.641,18.195 -17.461,18.544 -10.31,0.366 -18.782,-7.882 -18.782,-18.11 v -16.371 c -17.67,8.543 -36.343,14.398 -55.195,17.193 -9.978,1.483 -19.248,-5.638 -20.295,-15.781 -0.988,-9.568 6.091,-18.023 15.601,-19.469 20.716,-3.148 41.238,-10.864 59.889,-22.46 v -17.167 c -17.95,2.778 -35.929,2.73 -53.299,-0.165"
             style="fill:none;stroke:#000000;stroke-width:15;stroke-linecap:round;stroke-linejoin:round;stroke-miterlimit:10;stroke-dasharray:none;stroke-opacity:1"
             id="path547" /></g><g
           id="g549"
           transform="translate(455.1445,246.3901)"><path
             d="m 0,0 c -2.111,-25.465 -8.997,-49.901 -20.564,-72.845 -13.468,-26.715 -33.173,-50.501 -56.983,-68.786 -9.043,-6.946 -10.745,-19.908 -3.799,-28.952 4.066,-5.294 10.193,-8.072 16.391,-8.072 4.388,0 8.811,1.394 12.56,4.273 28.702,22.042 52.459,50.725 68.706,82.947 17.046,33.813 25.69,70.285 25.69,108.399 0,64.412 -25.083,124.969 -70.631,170.516 -45.546,45.546 -106.103,70.63 -170.516,70.63 -64.412,0 -124.969,-25.084 -170.516,-70.63 -45.547,-45.547 -70.63,-106.104 -70.63,-170.516 0,-38.114 8.644,-74.586 25.69,-108.399 16.247,-32.222 40.004,-60.905 68.706,-82.947 9.043,-6.946 22.005,-5.243 28.951,3.799 6.946,9.044 5.244,22.006 -3.8,28.952 -23.81,18.285 -43.514,42.071 -56.983,68.786 -14.113,27.995 -21.269,58.211 -21.269,89.809 0,53.382 20.788,103.569 58.535,141.316 37.747,37.747 87.935,58.535 141.316,58.535 53.382,0 103.569,-20.788 141.317,-58.535 C -23.965,124.416 -3.763,80.537 0.038,33.324"
             style="fill:none;stroke:#000000;stroke-width:15;stroke-linecap:round;stroke-linejoin:round;stroke-miterlimit:10;stroke-dasharray:none;stroke-opacity:1"
             id="path551" /></g><g
           id="g553"
           transform="translate(255.999,39.874)"><path
             d="M 0,0 V -2.383"
             style="fill:none;stroke:#000000;stroke-width:15;stroke-linecap:round;stroke-linejoin:round;stroke-miterlimit:10;stroke-dasharray:none;stroke-opacity:1"
             id="path555" /></g><g
           id="g557"
           transform="translate(255.999,66.4331)"><path
             d="M 0,0 V -2.383"
             style="fill:none;stroke:#000000;stroke-width:15;stroke-linecap:round;stroke-linejoin:round;stroke-miterlimit:10;stroke-dasharray:none;stroke-opacity:1"
             id="path559" /></g><g
           id="g561"
           transform="translate(255.999,92.9917)"><path
             d="M 0,0 V -2.383"
             style="fill:none;stroke:#000000;stroke-width:15;stroke-linecap:round;stroke-linejoin:round;stroke-miterlimit:10;stroke-dasharray:none;stroke-opacity:1"
             id="path563" /></g><g
           id="g565"
           transform="translate(255.999,119.5508)"><path
             d="M 0,0 V -2.383"
             style="fill:none;stroke:#000000;stroke-width:15;stroke-linecap:round;stroke-linejoin:round;stroke-miterlimit:10;stroke-dasharray:none;stroke-opacity:1"
             id="path567" /></g></g></g></g></svg>
