<?xml version="1.0" encoding="UTF-8"?>
<svg xmlns="http://www.w3.org/2000/svg" xmlns:xlink="http://www.w3.org/1999/xlink" version="1.1" id="Capa_1" x="0px" y="0px" viewBox="0 0 512 512" style="enable-background:new 0 0 512 512;" xml:space="preserve" width="512" height="512">
<g>
	<path style="fill:none;stroke:#000000;stroke-width:15;stroke-linecap:round;stroke-linejoin:round;stroke-miterlimit:10;" d="&#10;&#9;&#9;M480.452,416.323H31.548c-13.282,0-24.048-10.767-24.048-24.048V119.726c0-13.282,10.767-24.048,24.048-24.048h448.903&#10;&#9;&#9;c13.282,0,24.048,10.767,24.048,24.048v272.548C504.5,405.556,493.733,416.323,480.452,416.323z"/>
	
		<line style="fill:none;stroke:#000000;stroke-width:15;stroke-linecap:round;stroke-linejoin:round;stroke-miterlimit:10;" x1="472.435" y1="143.774" x2="504.5" y2="143.774"/>
	
		<line style="fill:none;stroke:#000000;stroke-width:15;stroke-linecap:round;stroke-linejoin:round;stroke-miterlimit:10;" x1="7.5" y1="143.774" x2="440.371" y2="143.774"/>
	<path style="fill:none;stroke:#000000;stroke-width:15;stroke-linecap:round;stroke-linejoin:round;stroke-miterlimit:10;" d="&#10;&#9;&#9;M39.565,199.887v-16.032c0-4.427,3.589-8.016,8.016-8.016h128.258c4.427,0,8.016,3.589,8.016,8.016v144.29&#10;&#9;&#9;c0,4.427-3.589,8.016-8.016,8.016H47.581c-4.427,0-8.016-3.589-8.016-8.016v-96.194"/>
	
		<line style="fill:none;stroke:#000000;stroke-width:15;stroke-linecap:round;stroke-linejoin:round;stroke-miterlimit:10;" x1="231.952" y1="296.081" x2="344.177" y2="296.081"/>
	
		<line style="fill:none;stroke:#000000;stroke-width:15;stroke-linecap:round;stroke-linejoin:round;stroke-miterlimit:10;" x1="231.952" y1="336.161" x2="344.177" y2="336.161"/>
	
		<line style="fill:none;stroke:#000000;stroke-width:15;stroke-linecap:round;stroke-linejoin:round;stroke-miterlimit:10;" x1="416.323" y1="344.177" x2="432.355" y2="328.145"/>
	
		<line style="fill:none;stroke:#000000;stroke-width:15;stroke-linecap:round;stroke-linejoin:round;stroke-miterlimit:10;" x1="47.581" y1="376.242" x2="344.177" y2="376.242"/>
	<path style="fill:none;stroke:#000000;stroke-width:15;stroke-linecap:round;stroke-linejoin:round;stroke-miterlimit:10;" d="&#10;&#9;&#9;M111.71,256L111.71,256c-13.282,0-24.048-10.767-24.048-24.048v-8.016c0-8.854,7.178-16.032,16.032-16.032h16.032&#10;&#9;&#9;c8.854,0,16.032,7.178,16.032,16.032v8.016C135.758,245.233,124.991,256,111.71,256z"/>
	<path style="fill:none;stroke:#000000;stroke-width:15;stroke-linecap:round;stroke-linejoin:round;stroke-miterlimit:10;" d="&#10;&#9;&#9;M71.629,336.161v-32.065c0-13.282,10.767-24.048,24.048-24.048l4.696,4.696c6.261,6.261,16.412,6.261,22.673,0l4.696-4.696&#10;&#9;&#9;c13.282,0,24.048,10.767,24.048,24.048v32.065"/>
	<path style="fill:none;stroke:#000000;stroke-width:15;stroke-linecap:round;stroke-linejoin:round;stroke-miterlimit:10;" d="&#10;&#9;&#9;M402.927,252.554l24.08-63.226c0.492-1.203,2.195-1.205,2.69-0.003l23.861,63.229"/>
	
		<line style="fill:none;stroke:#000000;stroke-width:15;stroke-linecap:round;stroke-linejoin:round;stroke-miterlimit:10;" x1="410.437" y1="236.808" x2="446.169" y2="236.808"/>
	
		<line style="fill:none;stroke:#000000;stroke-width:15;stroke-linecap:round;stroke-linejoin:round;stroke-miterlimit:10;" x1="306.418" y1="188.425" x2="306.418" y2="252.554"/>
	<path style="fill:none;stroke:#000000;stroke-width:15;stroke-linecap:round;stroke-linejoin:round;stroke-miterlimit:10;" d="&#10;&#9;&#9;M374.754,195.018c0,0-11.507-9.673-25.077-5.585c-12.46,3.753-14.203,18.121-5.188,23.998c0,0,8.845,3.946,18.656,7.565&#10;&#9;&#9;c23.617,8.711,13.444,31.559-5.569,31.559c-9.521,0-17.511-4.169-22.348-9.506"/>
	<path style="fill:none;stroke:#000000;stroke-width:15;stroke-linecap:round;stroke-linejoin:round;stroke-miterlimit:10;" d="&#10;&#9;&#9;M231.952,188.425l21.926,63.166c0.459,1.293,2.293,1.281,2.734-0.019l20.939-63.03"/>
	
		<circle style="fill:none;stroke:#000000;stroke-width:15;stroke-linecap:round;stroke-linejoin:round;stroke-miterlimit:10;" cx="424.339" cy="336.161" r="40.081"/>
</g>















</svg>
